<?xml version="1.0" standalone="no"?>
<!DOCTYPE svg PUBLIC "-//W3C//DTD SVG 20010904//EN"
 "http://www.w3.org/TR/2001/REC-SVG-20010904/DTD/svg10.dtd">
<svg version="1.0" xmlns="http://www.w3.org/2000/svg"
 width="886.000000pt" height="852.000000pt" viewBox="0 0 886.000000 852.000000"
 preserveAspectRatio="xMidYMid meet">
<metadata>
Created by potrace 1.16, written by Peter Selinger 2001-2019
</metadata>
<g transform="translate(0.000000,852.000000) scale(0.100000,-0.100000)"
fill="#000000" stroke="none">
<path d="M3270 8432 l0 -39 71 -28 c130 -51 234 -175 274 -327 20 -73 35 -273
38 -484 l2 -192 -67 -11 c-37 -6 -96 -11 -131 -11 -78 0 -77 3 -77 -160 0
-285 91 -574 243 -772 l29 -38 -2 -192 c-1 -195 -20 -441 -41 -512 -44 -157
-128 -265 -255 -328 -77 -38 -84 -44 -84 -71 l0 -30 183 7 c100 3 246 9 325
12 l142 7 0 433 c0 239 2 434 4 434 2 0 24 -11 47 -25 55 -31 66 -31 111 0 20
14 39 25 42 25 4 0 6 -195 6 -434 l0 -434 153 -6 c83 -3 237 -9 340 -12 l188
-6 -3 31 c-3 30 -8 34 -70 55 -36 13 -81 34 -100 46 -95 64 -179 203 -204 338
-8 42 -19 91 -26 107 -6 18 -13 135 -15 295 l-5 265 26 24 c14 14 26 29 26 33
0 5 13 28 28 51 33 48 115 216 115 235 0 19 578 17 670 -3 133 -28 231 -103
278 -212 26 -61 49 -157 49 -206 l0 -38 48 3 47 3 -2 110 c-1 61 -7 197 -14
303 -11 180 -4 454 16 615 l5 37 -49 0 c-47 0 -49 -1 -55 -33 -11 -61 -72
-171 -115 -210 -23 -21 -67 -49 -99 -63 -111 -49 -159 -56 -447 -61 l-270 -5
3 195 3 195 -93 1 c-51 1 -109 5 -128 9 l-35 8 0 269 c0 165 5 297 13 340 6
39 15 101 19 140 l8 70 40 7 c67 12 768 9 827 -3 52 -11 133 -51 173 -87 31
-27 91 -103 110 -142 23 -45 71 -193 80 -247 7 -42 8 -43 47 -43 l39 0 -3 401
-3 401 -95 -6 c-52 -3 -160 -10 -240 -15 -80 -6 -400 -13 -712 -17 l-568 -7 0
-484 c0 -269 -4 -483 -9 -483 -5 0 -30 12 -55 26 l-47 26 -50 -26 -49 -27 0
485 0 485 -32 5 c-18 3 -132 10 -253 16 -121 6 -253 14 -292 17 l-73 5 0 -40z"/>
<path d="M4078 5015 c-348 -66 -626 -297 -822 -683 -149 -296 -201 -534 -201
-932 0 -401 54 -645 210 -950 197 -385 484 -612 886 -702 93 -21 129 -23 344
-23 211 0 254 3 353 23 408 83 715 286 943 624 32 47 81 128 108 180 51 95
141 309 141 334 0 11 -21 14 -99 14 l-100 0 -46 -82 c-169 -301 -443 -548
-730 -659 -256 -99 -554 -121 -801 -59 -292 74 -523 260 -667 538 -119 230
-158 451 -149 840 l2 112 1026 0 1026 0 -7 53 c-64 488 -195 826 -404 1040
-155 160 -326 262 -531 318 -100 27 -369 35 -482 14z m408 -305 c111 -28 195
-74 278 -151 119 -111 217 -299 257 -494 10 -49 19 -102 19 -117 l0 -28 -776
0 -776 0 7 43 c51 323 243 605 482 708 143 62 354 78 509 39z"/>
<path d="M5360 4784 c0 -3 24 -34 54 -67 208 -240 326 -578 352 -1014 l7 -113
209 0 209 0 -5 33 c-3 17 -11 61 -16 97 -36 219 -125 445 -246 628 -106 158
-272 301 -461 397 -91 45 -103 50 -103 39z"/>
<path d="M2935 4512 c-197 -169 -348 -360 -418 -527 -83 -201 -119 -391 -119
-635 0 -432 126 -752 395 -1007 88 -83 261 -207 280 -200 27 9 30 35 9 64 -40
56 -150 287 -185 389 -83 239 -120 484 -120 794 0 430 64 732 225 1057 42 85
48 105 38 118 -7 8 -15 15 -19 15 -3 0 -42 -31 -86 -68z"/>
<path d="M50 3395 l0 -1015 145 0 145 0 -2 1013 -3 1012 -142 3 -143 3 0
-1016z"/>
<path d="M760 4395 c-83 -23 -129 -61 -170 -140 l-35 -68 0 -796 0 -796 24
-52 c13 -29 43 -70 66 -92 72 -66 104 -71 452 -71 l303 0 0 500 0 500 -215 0
-215 0 0 -130 0 -130 70 0 70 0 0 -240 0 -240 -104 0 c-119 0 -148 13 -166 78
-14 51 -14 1293 0 1344 17 58 50 78 132 78 122 0 138 -23 138 -200 l0 -120
146 0 146 0 -4 178 c-4 202 -12 234 -88 316 -68 74 -121 89 -325 93 -129 2
-183 -1 -225 -12z"/>
<path d="M1605 4398 c-3 -7 -4 -463 -3 -1013 l3 -1000 328 -3 327 -2 0 130 0
130 -180 0 -180 0 -2 883 -3 882 -143 3 c-108 2 -144 0 -147 -10z"/>
<path d="M6650 4266 c-112 -24 -180 -84 -217 -191 -16 -43 -18 -90 -18 -355 0
-337 3 -354 60 -411 18 -19 122 -83 231 -144 108 -60 207 -120 220 -132 24
-22 24 -23 24 -248 l0 -226 -25 -24 c-21 -21 -33 -25 -89 -25 -70 0 -110 13
-122 39 -5 9 -10 54 -13 101 l-6 85 -142 3 -143 3 0 -78 c0 -224 65 -353 201
-396 69 -23 352 -24 425 -2 107 31 172 111 194 237 8 44 11 165 8 355 -3 284
-3 289 -27 327 -29 46 -100 93 -305 202 -81 43 -161 91 -177 106 l-29 26 0
211 c0 133 4 219 11 234 15 34 49 47 120 47 54 0 64 -3 90 -29 29 -29 29 -31
29 -145 l0 -116 146 0 147 0 -5 158 c-4 128 -9 167 -27 213 -37 98 -112 157
-226 178 -76 14 -264 13 -335 -3z"/>
<path d="M7447 4274 c-4 -4 -7 -461 -7 -1016 l0 -1008 145 0 145 0 -2 1013 -3
1012 -136 3 c-74 1 -138 -1 -142 -4z"/>
<path d="M8200 4271 c-109 -20 -178 -73 -224 -171 l-31 -65 -3 -892 -3 -893
146 0 145 0 0 365 0 365 145 0 145 0 0 -365 0 -365 145 0 145 0 0 880 c0 510
-4 888 -9 898 -5 9 -17 40 -27 67 -22 64 -94 136 -160 160 -55 20 -334 30
-414 16z m287 -285 l28 -24 3 -356 3 -356 -146 0 -146 0 3 356 3 356 28 24
c25 21 38 24 112 24 74 0 87 -3 112 -24z"/>
<path d="M1430 1325 l0 -55 3015 0 3015 0 0 55 0 55 -3015 0 -3015 0 0 -55z"/>
<path d="M5485 1000 c-149 -22 -234 -113 -235 -248 0 -78 16 -118 65 -161 48
-42 114 -71 226 -101 158 -41 219 -89 219 -172 0 -92 -51 -138 -161 -146 -126
-9 -213 38 -240 128 l-12 40 -69 0 c-59 0 -68 -2 -68 -18 0 -43 35 -116 79
-163 144 -155 462 -143 573 22 34 50 41 88 36 179 -3 59 -8 75 -34 107 -17 21
-51 52 -77 70 -45 30 -79 43 -259 97 -112 34 -143 65 -136 138 6 59 35 94 92
109 51 14 143 6 184 -15 31 -16 72 -79 72 -111 0 -12 14 -15 70 -15 70 0 70 0
70 28 -1 36 -35 110 -68 145 -40 43 -113 76 -189 87 -37 5 -72 9 -78 9 -5 -1
-32 -5 -60 -9z"/>
<path d="M1550 524 l0 -467 223 6 c271 6 306 14 381 90 59 59 76 103 76 194 0
79 -30 137 -93 180 l-46 31 35 27 c48 37 74 95 74 170 0 75 -25 131 -76 173
-65 54 -111 62 -356 62 l-218 0 0 -466z m448 332 c39 -20 62 -62 62 -113 -1
-97 -50 -125 -237 -131 l-133 -5 0 138 0 138 138 -5 c101 -4 146 -10 170 -22z
m7 -382 c59 -29 80 -64 80 -134 0 -67 -20 -102 -76 -135 -29 -17 -57 -20 -176
-24 l-143 -3 0 162 0 163 138 -5 c110 -3 145 -8 177 -24z"/>
<path d="M2475 538 c-88 -248 -161 -458 -163 -465 -5 -18 121 -18 135 0 6 6
30 69 54 139 l44 128 175 0 175 0 49 -134 c27 -74 55 -137 63 -140 19 -8 143
-8 143 -1 0 9 -179 487 -191 510 -5 11 -42 108 -82 215 l-72 195 -85 3 -85 2
-160 -452z m313 115 l69 -193 -136 0 -137 0 65 194 c36 107 66 194 67 193 1
-1 33 -89 72 -194z"/>
<path d="M3232 663 c5 -360 8 -384 68 -475 33 -50 83 -88 145 -109 22 -7 44
-17 49 -21 13 -11 199 -10 212 0 5 5 27 14 50 20 69 20 129 74 166 149 l33 68
3 347 3 348 -64 0 -65 0 -4 -322 c-4 -313 -5 -325 -27 -376 -30 -67 -67 -98
-137 -112 -135 -28 -241 29 -274 149 -6 20 -10 170 -10 349 l0 312 -76 0 -75
0 3 -327z"/>
<path d="M4080 930 l0 -60 145 0 145 0 2 -402 3 -403 70 0 70 0 0 403 0 402
148 0 147 0 0 60 0 60 -365 0 -365 0 0 -60z"/>
<path d="M4922 528 l3 -463 68 -3 67 -3 0 466 0 465 -70 0 -70 0 2 -462z"/>
<path d="M5960 930 l0 -60 148 0 147 0 0 -402 0 -403 70 0 70 0 3 403 2 402
145 0 145 0 0 60 0 60 -365 0 -365 0 0 -60z"/>
<path d="M6775 539 c-88 -248 -161 -457 -163 -465 -3 -11 10 -14 62 -14 77 0
71 -8 132 168 l39 112 175 0 175 0 49 -135 c54 -150 55 -151 143 -140 44 5 53
9 48 23 -3 9 -79 215 -169 457 l-164 440 -83 3 -84 2 -160 -451z m363 -26 l20
-53 -137 0 -137 0 65 198 66 197 51 -145 c28 -80 61 -169 72 -197z"/>
</g>
</svg>
